<svg width="16" height="16" viewBox="0 0 16 16" fill="none" xmlns="http://www.w3.org/2000/svg">
<g clip-path="url(#clip0)">
<path d="M10.888 12.1145V11.3725L10.8725 11.3805C10.7056 11.4615 10.5239 11.5076 10.3385 11.516C10.1461 11.5313 9.95497 11.4746 9.802 11.357C9.69222 11.2731 9.61046 11.1579 9.5675 11.0265C9.52074 10.8824 9.51537 10.7281 9.552 10.581C9.586 10.43 9.669 10.297 9.789 10.201C9.89638 10.1131 10.0263 10.0571 10.164 10.0395C10.4081 10.0139 10.6543 10.0601 10.8725 10.1725L10.888 10.1805V9.43553L10.854 9.42753C10.6363 9.35797 10.4078 9.32799 10.1795 9.33903C9.971 9.34403 9.7655 9.39103 9.578 9.47703C9.38635 9.56317 9.21777 9.69337 9.086 9.85703C8.88314 10.1122 8.77034 10.4273 8.76519 10.7532C8.76003 11.0791 8.8628 11.3976 9.0575 11.659C9.2555 11.9115 9.5315 12.0915 9.8415 12.164C10.169 12.2439 10.5122 12.2322 10.8335 12.13L10.888 12.1145V12.1145ZM3.5575 12.1145V11.3725L3.542 11.3805C3.37516 11.4618 3.1934 11.5079 3.008 11.516C2.81565 11.5313 2.62447 11.4746 2.4715 11.357C2.36246 11.2724 2.28087 11.1574 2.237 11.0265C2.19019 10.8824 2.18482 10.728 2.2215 10.581C2.2555 10.43 2.3385 10.297 2.4585 10.201C2.56588 10.1131 2.69583 10.0571 2.8335 10.0395C3.07758 10.0139 3.32383 10.0601 3.542 10.1725L3.5575 10.1805V9.43553L3.5235 9.42753C3.3058 9.3578 3.07732 9.32782 2.849 9.33903C2.6405 9.34403 2.4375 9.39103 2.2475 9.47703C2.05664 9.56447 1.88834 9.69446 1.7555 9.85703C1.55319 10.1124 1.44075 10.4274 1.4356 10.7532C1.43045 11.079 1.53287 11.3974 1.727 11.659C1.9225 11.9115 2.201 12.0915 2.511 12.164C2.83853 12.2439 3.18171 12.2321 3.503 12.13L3.5575 12.1145V12.1145ZM6.1745 11.5L6.172 12.138L6.2165 12.146C6.365 12.172 6.511 12.1905 6.659 12.2035C6.789 12.214 6.922 12.2165 7.052 12.2115C7.177 12.201 7.2995 12.1775 7.419 12.141C7.5595 12.102 7.687 12.0315 7.799 11.938C7.898 11.852 7.976 11.7425 8.0205 11.6205C8.101 11.412 8.0985 11.1855 8.0155 10.98C7.97415 10.8726 7.90598 10.7776 7.8175 10.704C7.73334 10.6277 7.63401 10.5699 7.526 10.5345L7.044 10.355C6.98681 10.3307 6.94055 10.2862 6.914 10.23C6.90318 10.207 6.898 10.1818 6.89886 10.1564C6.89973 10.131 6.90664 10.1062 6.919 10.084C6.94343 10.0432 6.97852 10.0099 7.0205 9.98753C7.075 9.96153 7.1325 9.94603 7.1925 9.93803C7.294 9.92503 7.398 9.92503 7.5 9.94303C7.62 9.95603 7.737 9.97703 7.854 10.0055L7.88 10.0105V9.42203L7.833 9.41153C7.71355 9.38419 7.5927 9.36333 7.471 9.34903C7.31297 9.32719 7.15275 9.32635 6.9945 9.34653C6.79484 9.36516 6.60485 9.44123 6.4475 9.56553C6.3413 9.64976 6.2602 9.76146 6.213 9.88853C6.14548 10.0825 6.14548 10.2936 6.213 10.4875C6.2495 10.5865 6.307 10.6725 6.3825 10.7425C6.4475 10.805 6.5205 10.857 6.6015 10.899C6.7055 10.9565 6.8175 10.998 6.932 11.029C6.9685 11.042 7.0075 11.0525 7.044 11.0655L7.1015 11.0865L7.117 11.0945C7.17347 11.1133 7.22506 11.1443 7.268 11.1855C7.29895 11.2129 7.32221 11.2479 7.3355 11.287C7.34601 11.3219 7.34601 11.3591 7.3355 11.394C7.31747 11.4508 7.27825 11.4984 7.226 11.527C7.1685 11.5555 7.106 11.5765 7.041 11.5845C6.94708 11.5991 6.85186 11.6035 6.757 11.5975C6.56699 11.5837 6.37867 11.5523 6.1945 11.5035L6.1745 11.5ZM4.5235 12.1615H5.224V9.38553H4.5235V12.1615ZM12.63 10.2055C12.7804 10.0851 12.9723 10.0289 13.1639 10.0492C13.3555 10.0695 13.5314 10.1646 13.6532 10.3138C13.7751 10.4631 13.8331 10.6544 13.8146 10.8462C13.7961 11.038 13.7026 11.2148 13.5545 11.338L13.5415 11.346C12.7835 11.9295 11.8955 10.8145 12.63 10.2055ZM11.6145 10.7735C11.6178 10.9906 11.6693 11.2042 11.7654 11.3988C11.8614 11.5935 11.9996 11.7644 12.1698 11.899C12.3401 12.0337 12.5382 12.1287 12.7498 12.1773C12.9613 12.2259 13.181 12.2269 13.393 12.18C14.6795 11.935 14.984 10.2295 13.859 9.55503C12.89 8.95603 11.6375 9.63553 11.614 10.774L11.6145 10.7735ZM15.3075 7.15103C15.3255 7.59353 15.982 7.59353 16 7.15103V6.38303C15.982 5.94053 15.3255 5.94053 15.3075 6.38303V7.15103V7.15103ZM13.4115 7.15103C13.443 7.58053 14.073 7.58053 14.104 7.15103V5.42703C14.078 4.99203 13.44 4.99203 13.4115 5.42703V7.15103ZM11.487 7.84653C11.521 8.27603 12.1485 8.27603 12.1795 7.84653V4.11453C12.1615 3.67203 11.5075 3.67203 11.487 4.11453V7.84653ZM9.5965 7.15103C9.6225 7.58603 10.2605 7.58603 10.289 7.15103V5.42703C10.268 4.98453 9.6145 4.98453 9.5965 5.42703V7.15103ZM7.6615 7.15103C7.703 7.57053 8.315 7.57053 8.354 7.15103V6.38303C8.336 5.94053 7.682 5.94053 7.6615 6.38303V7.15103V7.15103ZM5.75 7.15103C5.768 7.59353 6.422 7.59353 6.4425 7.15103V5.42703C6.4215 4.98453 5.768 4.98453 5.75 5.42703V7.15103ZM3.8255 7.84653C3.8435 8.28903 4.4975 8.28903 4.518 7.84653V4.11453C4.497 3.67203 3.8435 3.67203 3.8255 4.11453V7.84653ZM1.9165 7.15103C1.9555 7.57553 2.573 7.57553 2.609 7.15103V5.42703C2.591 4.98453 1.937 4.98453 1.919 5.42703V7.15103H1.9165ZM0 7.15103C0.0315 7.58053 0.659 7.58053 0.6925 7.15103V6.38303C0.6745 5.94053 0.018 5.94053 0 6.38303V7.15103Z" fill="white"/>
</g>
<defs>
<clipPath id="clip0">
<rect width="16" height="16" fill="white"/>
</clipPath>
</defs>
</svg>
