<?xml version="1.0" encoding="UTF-8"?>
<!DOCTYPE svg PUBLIC "-//W3C//DTD SVG 1.1//EN" "http://www.w3.org/Graphics/SVG/1.1/DTD/svg11.dtd">
<!-- Creator: CorelDRAW X7 -->
<svg xmlns="http://www.w3.org/2000/svg" xml:space="preserve" width="520px" height="480px" version="1.1" style="shape-rendering:geometricPrecision; text-rendering:geometricPrecision; image-rendering:optimizeQuality; fill-rule:evenodd; clip-rule:evenodd"
viewBox="0 0 520 480"
 xmlns:xlink="http://www.w3.org/1999/xlink">
 <defs>
  <style type="text/css">
   <![CDATA[
    .fil2 {fill:#ffffff;fill-rule:nonzero}
    .fil3 {fill:#ffffff;fill-rule:nonzero}
    .fil4 {fill:#ffffff;fill-rule:nonzero}
    .fil1 {fill:#ffffff;fill-rule:nonzero}
    .fil0 {fill:#ffffff;fill-rule:nonzero}
   ]]>
  </style>
 </defs>
 <g id="Layer_x0020_1">
  <metadata id="CorelCorpID_0Corel-Layer"/>
  <g id="_1893509013328">
   <path class="fil0" d="M477 413c0,0 -169,-54 -477,3 0,0 190,-165 30,-308 0,0 86,11 184,53l0 0c5,2 9,4 14,6l0 0c39,18 79,40 116,69 5,4 9,7 13,11 23,18 44,39 62,63 2,2 4,5 6,7 9,12 17,25 24,38 1,1 2,3 3,4 10,17 18,35 25,54z"/>
   <path class="fil1" d="M438 178c-6,2 -12,4 -17,7 4,-2 9,-3 14,-4 -20,20 -42,40 -67,58 -4,3 -7,5 -11,8 -4,-4 -8,-7 -13,-11 5,-3 9,-6 13,-9 87,-65 133,-150 104,-189 -19,-25 -62,-26 -113,-8 72,-34 134,-41 156,-11 24,31 -5,95 -66,159z"/>
   <path class="fil2" d="M344 236c5,4 9,7 13,11 -18,13 -36,25 -54,35 -2,0 -3,1 -5,2 -82,45 -156,57 -181,24 -21,-29 1,-84 51,-142 -30,43 -40,83 -22,107 28,38 115,21 198,-37z"/>
   <path class="fil1" d="M438 178c-1,1 -2,2 -3,3 -5,1 -10,2 -14,4 5,-3 11,-5 17,-7z"/>
   <path class="fil1" d="M474 275c-4,2 -9,4 -14,6 4,-1 8,-2 12,-3 -12,12 -25,23 -40,34 -2,2 -5,4 -7,5 -2,-2 -4,-5 -6,-7 2,-2 5,-4 7,-5 53,-40 81,-91 63,-115 -10,-13 -30,-15 -54,-9 1,-1 2,-2 3,-3 36,-14 65,-15 77,0 14,20 -3,59 -41,97z"/>
   <path class="fil2" d="M419 310c2,2 4,5 6,7 -10,8 -21,14 -31,20l0 0c-1,1 -2,1 -3,2 -50,28 -96,35 -111,15 -10,-15 -3,-41 18,-70 4,-5 8,-11 13,-16 -3,5 -6,9 -8,14 -12,20 -14,39 -5,51 17,23 70,12 121,-23z"/>
   <path class="fil1" d="M421 185c5,-3 11,-5 17,-7 -1,1 -2,2 -3,3 -5,1 -10,2 -14,4z"/>
   <path class="fil1" d="M474 275c-1,1 -1,2 -2,3 -4,1 -8,2 -12,3 5,-2 10,-4 14,-6z"/>
   <path class="fil1" d="M466 350c-5,3 -9,7 -14,9 -1,-1 -2,-3 -3,-4 5,-3 9,-6 14,-9 28,-21 43,-49 34,-62 -5,-6 -14,-8 -25,-6 1,-1 1,-2 2,-3 17,-5 31,-5 37,3 10,13 -10,46 -45,72z"/>
   <path class="fil3" d="M449 355c1,1 2,3 3,4 -30,19 -59,25 -68,13 -5,-7 -2,-19 7,-33 2,-4 6,-9 10,-13 -3,4 -5,8 -7,11l0 0c-4,10 -5,18 -1,24 9,11 32,8 56,-6z"/>
   <path class="fil1" d="M474 275c-1,1 -1,2 -2,3 -4,1 -8,2 -12,3 5,-2 10,-4 14,-6z"/>
   <path class="fil4" d="M291 143c32,-24 49,-55 39,-69 -11,-14 -45,-7 -78,17 -32,24 -49,55 -39,69 11,14 45,7 78,-17z"/>
   <path class="fil1" d="M13 480l-9 0 0 -55 25 0c8,0 13,1 16,3 4,3 6,7 6,12 0,5 -2,9 -5,12 -2,1 -4,2 -7,3 8,3 10,7 10,17 1,7 1,7 2,8l-9 0c-1,0 -1,0 -1,-2 0,-3 0,-4 0,-6 -1,-11 -6,-15 -19,-15l-9 0 0 23zm16 -30l0 0c5,0 8,0 9,-2 2,-1 3,-4 3,-7 0,-4 -1,-6 -3,-8 -2,0 -4,-1 -9,-1l-16 0 0 18 16 0z"/>
   <polygon class="fil1" points="60,425 69,425 69,480 60,480 "/>
   <path class="fil1" d="M80 473l24 0c4,0 6,0 8,-1 2,-2 3,-4 3,-7 0,-4 -2,-7 -5,-8 -1,-1 -3,-1 -8,-1l-5 0c-7,0 -11,-1 -14,-3 -3,-2 -5,-6 -5,-11 0,-6 3,-12 8,-15 3,-1 7,-2 13,-2l23 0 0 7 -23 0c-5,0 -7,1 -9,2 -2,1 -3,4 -3,7 0,5 3,7 12,7l3 0c10,0 14,1 17,3 4,3 6,8 6,14 0,6 -3,11 -8,14 -4,1 -7,1 -15,1l-22 0 0 -7z"/>
   <polygon class="fil1" points="128,432 128,425 175,425 175,432 156,432 156,480 147,480 147,432 "/>
   <path class="fil1" d="M221 432l-16 0c-8,0 -12,2 -15,7 -1,3 -2,5 -2,10l33 0 0 7 -33 0c0,4 1,8 2,11 3,5 7,6 14,6l17 0 0 7 -18 0c-10,0 -16,-2 -20,-7 -3,-5 -5,-11 -5,-19 0,-11 3,-20 10,-25 4,-3 9,-4 17,-4l16 0 0 7z"/>
   <path class="fil1" d="M239 480l-8 0 0 -55 8 0 0 55zm27 -55l0 0 11 0 -28 27 30 28 -12 0 -28 -28 27 -27z"/>
   <path class="fil1" d="M306 425c12,0 16,2 21,6 5,5 7,12 7,21 0,13 -4,21 -11,25 -4,3 -7,3 -16,3l-22 0 0 -55 21 0zm-12 48l0 0 14 0c6,0 11,-1 13,-5 2,-4 3,-9 3,-15 0,-7 -1,-13 -4,-16 -2,-4 -6,-5 -13,-5l-13 0 0 41z"/>
   <polygon class="fil1" points="342,425 351,425 351,480 342,480 "/>
   <path class="fil1" d="M372 480l-9 0 0 -55 9 0 0 55zm27 -55l0 0 10 0 -28 27 30 28 -12 0 -27 -28 27 -27z"/>
   <polygon class="fil1" points="413,432 413,425 460,425 460,432 441,432 441,480 433,480 433,432 "/>
   <polygon class="fil1" points="467,425 476,425 476,480 467,480 "/>
  </g>
 </g>
</svg>
