<svg width="50" height="50" viewBox="0 0 50 50" fill="none" xmlns="http://www.w3.org/2000/svg">
<circle cx="25" cy="25" r="25" fill="#454545"/>
<path d="M23.1925 17.8L18.9638 12.9188C18.4763 12.3563 17.5825 12.3588 17.0163 12.9263L13.5388 16.41C12.5038 17.4463 12.2075 18.985 12.8063 20.2188C16.3833 27.625 22.3564 33.6064 29.7575 37.1938C30.99 37.7925 32.5275 37.4963 33.5625 36.46L37.0725 32.9438C37.6413 32.375 37.6425 31.4763 37.075 30.9888L32.175 26.7825C31.6625 26.3425 30.8663 26.4 30.3525 26.915L28.6475 28.6225C28.5603 28.714 28.4454 28.7743 28.3205 28.7942C28.1956 28.8141 28.0677 28.7924 27.9563 28.7325C25.1694 27.1277 22.8575 24.8128 21.2563 22.0238C21.1963 21.9122 21.1746 21.7841 21.1945 21.659C21.2144 21.5339 21.2747 21.4188 21.3663 21.3313L23.0663 19.63C23.5813 19.1125 23.6375 18.3125 23.1925 17.7988V17.8Z" stroke="white" stroke-width="2" stroke-linecap="round" stroke-linejoin="round"/>
</svg>
